<?xml version="1.0" encoding="UTF-8"?>
<svg xmlns="http://www.w3.org/2000/svg" xmlns:xlink="http://www.w3.org/1999/xlink" width="13px" height="16px" viewBox="0 0 13 16" version="1.1">
<g id="surface1">
<path style=" stroke:none;fill-rule:nonzero;fill:rgb(0%,0%,0%);fill-opacity:1;" d="M 5.824219 0.0273438 C 4.246094 0.0976562 2.867188 0.386719 1.703125 0.890625 C 1.070312 1.160156 0.511719 1.496094 0.136719 1.828125 L 0.0625 1.890625 L 0.0625 5.1875 C 0.0625 8.734375 0.0625 8.59375 0.128906 8.910156 C 0.304688 9.726562 0.804688 10.859375 1.414062 11.820312 C 2.265625 13.15625 3.308594 14.230469 4.472656 14.976562 C 4.816406 15.199219 5.042969 15.324219 5.40625 15.496094 C 5.722656 15.640625 5.972656 15.742188 6.289062 15.847656 L 6.503906 15.917969 L 6.613281 15.882812 C 6.808594 15.824219 7.167969 15.691406 7.382812 15.597656 C 9.105469 14.84375 10.660156 13.355469 11.828125 11.339844 C 12.363281 10.414062 12.800781 9.355469 12.921875 8.691406 C 12.941406 8.566406 12.945312 8.40625 12.945312 5.21875 L 12.945312 1.882812 L 12.820312 1.777344 C 12.464844 1.472656 11.910156 1.144531 11.3125 0.890625 C 10.203125 0.414062 8.921875 0.132812 7.417969 0.0390625 C 7.136719 0.0195312 6.117188 0.0117188 5.824219 0.0273438 Z M 7.398438 0.535156 C 8.859375 0.628906 10.035156 0.886719 11.113281 1.347656 C 11.582031 1.546875 12.042969 1.800781 12.320312 2.019531 L 12.429688 2.105469 L 12.433594 5.265625 C 12.4375 8.789062 12.445312 8.480469 12.34375 8.871094 C 12.148438 9.632812 11.671875 10.660156 11.097656 11.558594 C 10.089844 13.132812 8.820312 14.332031 7.441406 15.003906 C 7.3125 15.066406 7.167969 15.132812 7.117188 15.15625 L 7.023438 15.195312 L 7.023438 12.921875 L 5.992188 12.921875 L 5.984375 15.195312 L 5.800781 15.117188 C 4.164062 14.40625 2.660156 12.980469 1.59375 11.128906 C 1.105469 10.277344 0.75 9.394531 0.617188 8.703125 L 0.585938 8.546875 L 0.585938 2.105469 L 0.695312 2.019531 C 1.28125 1.5625 2.328125 1.109375 3.433594 0.84375 C 4.199219 0.660156 4.933594 0.566406 5.984375 0.515625 C 6.164062 0.507812 7.199219 0.519531 7.398438 0.535156 Z M 7.398438 0.535156 "/>
<path style=" stroke:none;fill-rule:nonzero;fill:rgb(0%,0%,0%);fill-opacity:1;" d="M 4.359375 1.515625 C 4.335938 1.523438 4.292969 1.550781 4.265625 1.578125 C 4.152344 1.6875 4.171875 1.863281 4.304688 1.957031 C 4.351562 1.988281 4.367188 1.992188 4.445312 1.992188 C 4.515625 1.992188 4.539062 1.988281 4.582031 1.960938 C 4.664062 1.90625 4.695312 1.847656 4.695312 1.75 C 4.695312 1.65625 4.664062 1.59375 4.585938 1.542969 C 4.53125 1.507812 4.425781 1.496094 4.359375 1.515625 Z M 4.359375 1.515625 "/>
<path style=" stroke:none;fill-rule:nonzero;fill:rgb(0%,0%,0%);fill-opacity:1;" d="M 5.390625 1.515625 C 5.367188 1.523438 5.324219 1.550781 5.296875 1.578125 C 5.183594 1.6875 5.199219 1.863281 5.332031 1.957031 C 5.382812 1.988281 5.398438 1.992188 5.476562 1.992188 C 5.546875 1.992188 5.570312 1.988281 5.613281 1.960938 C 5.695312 1.90625 5.726562 1.847656 5.726562 1.75 C 5.726562 1.65625 5.695312 1.59375 5.617188 1.542969 C 5.5625 1.507812 5.457031 1.496094 5.390625 1.515625 Z M 5.390625 1.515625 "/>
<path style=" stroke:none;fill-rule:nonzero;fill:rgb(0%,0%,0%);fill-opacity:1;" d="M 6.421875 1.515625 C 6.398438 1.523438 6.355469 1.550781 6.328125 1.578125 C 6.214844 1.6875 6.230469 1.863281 6.363281 1.957031 C 6.414062 1.988281 6.429688 1.992188 6.507812 1.992188 C 6.578125 1.992188 6.601562 1.988281 6.644531 1.960938 C 6.726562 1.90625 6.757812 1.847656 6.757812 1.75 C 6.757812 1.65625 6.726562 1.59375 6.648438 1.542969 C 6.59375 1.507812 6.488281 1.496094 6.421875 1.515625 Z M 6.421875 1.515625 "/>
<path style=" stroke:none;fill-rule:nonzero;fill:rgb(0%,0%,0%);fill-opacity:1;" d="M 7.449219 1.515625 C 7.429688 1.523438 7.386719 1.550781 7.359375 1.578125 C 7.246094 1.6875 7.261719 1.863281 7.394531 1.957031 C 7.441406 1.988281 7.460938 1.992188 7.539062 1.992188 C 7.609375 1.992188 7.632812 1.988281 7.675781 1.960938 C 7.757812 1.90625 7.789062 1.847656 7.789062 1.75 C 7.789062 1.65625 7.757812 1.59375 7.679688 1.542969 C 7.625 1.507812 7.519531 1.496094 7.449219 1.515625 Z M 7.449219 1.515625 "/>
<path style=" stroke:none;fill-rule:nonzero;fill:rgb(0%,0%,0%);fill-opacity:1;" d="M 8.480469 1.515625 C 8.457031 1.523438 8.417969 1.550781 8.390625 1.578125 C 8.277344 1.6875 8.292969 1.863281 8.425781 1.957031 C 8.472656 1.988281 8.492188 1.992188 8.566406 1.992188 C 8.640625 1.992188 8.664062 1.988281 8.707031 1.960938 C 8.789062 1.90625 8.820312 1.847656 8.820312 1.75 C 8.820312 1.65625 8.789062 1.59375 8.710938 1.542969 C 8.65625 1.507812 8.550781 1.496094 8.480469 1.515625 Z M 8.480469 1.515625 "/>
<path style=" stroke:none;fill-rule:nonzero;fill:rgb(0%,0%,0%);fill-opacity:1;" d="M 3.300781 1.777344 C 3.125 1.867188 3.109375 2.09375 3.273438 2.203125 C 3.320312 2.234375 3.335938 2.242188 3.414062 2.242188 C 3.484375 2.242188 3.507812 2.234375 3.554688 2.207031 C 3.632812 2.15625 3.667969 2.09375 3.667969 2 C 3.667969 1.933594 3.660156 1.90625 3.636719 1.871094 C 3.566406 1.761719 3.414062 1.71875 3.300781 1.777344 Z M 3.300781 1.777344 "/>
<path style=" stroke:none;fill-rule:nonzero;fill:rgb(0%,0%,0%);fill-opacity:1;" d="M 9.484375 1.777344 C 9.308594 1.867188 9.296875 2.09375 9.457031 2.203125 C 9.503906 2.234375 9.523438 2.242188 9.597656 2.242188 C 9.671875 2.242188 9.695312 2.234375 9.738281 2.207031 C 9.816406 2.15625 9.851562 2.09375 9.851562 2 C 9.851562 1.933594 9.84375 1.90625 9.820312 1.871094 C 9.75 1.761719 9.597656 1.71875 9.484375 1.777344 Z M 9.484375 1.777344 "/>
<path style=" stroke:none;fill-rule:nonzero;fill:rgb(0%,0%,0%);fill-opacity:1;" d="M 2.296875 2.011719 C 2.273438 2.019531 2.230469 2.046875 2.203125 2.074219 C 2.089844 2.183594 2.109375 2.359375 2.242188 2.453125 C 2.289062 2.484375 2.308594 2.488281 2.382812 2.488281 C 2.453125 2.488281 2.476562 2.484375 2.523438 2.457031 C 2.601562 2.40625 2.636719 2.34375 2.636719 2.246094 C 2.636719 2.152344 2.601562 2.089844 2.527344 2.039062 C 2.46875 2.003906 2.363281 1.992188 2.296875 2.011719 Z M 2.296875 2.011719 "/>
<path style=" stroke:none;fill-rule:nonzero;fill:rgb(0%,0%,0%);fill-opacity:1;" d="M 10.542969 2.011719 C 10.519531 2.019531 10.480469 2.046875 10.449219 2.074219 C 10.335938 2.183594 10.355469 2.359375 10.488281 2.453125 C 10.535156 2.484375 10.554688 2.488281 10.628906 2.488281 C 10.703125 2.488281 10.726562 2.484375 10.769531 2.457031 C 10.847656 2.40625 10.882812 2.34375 10.882812 2.246094 C 10.882812 2.152344 10.847656 2.089844 10.773438 2.039062 C 10.71875 2.003906 10.613281 1.992188 10.542969 2.011719 Z M 10.542969 2.011719 "/>
<path style=" stroke:none;fill-rule:nonzero;fill:rgb(0%,0%,0%);fill-opacity:1;" d="M 1.496094 2.519531 C 1.316406 2.609375 1.308594 2.855469 1.480469 2.957031 C 1.515625 2.980469 1.546875 2.984375 1.613281 2.984375 C 1.6875 2.984375 1.707031 2.980469 1.753906 2.949219 C 1.828125 2.898438 1.863281 2.832031 1.863281 2.738281 C 1.863281 2.601562 1.769531 2.511719 1.628906 2.5 C 1.566406 2.496094 1.542969 2.5 1.496094 2.519531 Z M 1.496094 2.519531 "/>
<path style=" stroke:none;fill-rule:nonzero;fill:rgb(0%,0%,0%);fill-opacity:1;" d="M 11.292969 2.519531 C 11.113281 2.609375 11.101562 2.855469 11.273438 2.957031 C 11.3125 2.980469 11.339844 2.984375 11.40625 2.984375 C 11.480469 2.984375 11.5 2.980469 11.546875 2.949219 C 11.621094 2.898438 11.65625 2.832031 11.65625 2.738281 C 11.65625 2.601562 11.5625 2.511719 11.421875 2.5 C 11.363281 2.496094 11.335938 2.5 11.292969 2.519531 Z M 11.292969 2.519531 "/>
<path style=" stroke:none;fill-rule:nonzero;fill:rgb(0%,0%,0%);fill-opacity:1;" d="M 3.433594 4 C 2.914062 4.066406 2.441406 4.320312 1.996094 4.761719 C 1.863281 4.894531 1.675781 5.117188 1.636719 5.1875 C 1.628906 5.203125 1.699219 5.175781 1.859375 5.097656 C 2.261719 4.898438 2.617188 4.792969 3.023438 4.75 C 3.402344 4.707031 3.65625 4.742188 3.921875 4.875 C 4.023438 4.925781 4.179688 5.035156 4.277344 5.117188 C 4.378906 5.210938 4.570312 5.433594 4.703125 5.625 C 4.878906 5.871094 4.953125 5.929688 5.132812 5.960938 C 5.355469 6 5.574219 5.890625 5.679688 5.6875 C 5.726562 5.597656 5.726562 5.585938 5.726562 5.476562 C 5.726562 5.371094 5.722656 5.347656 5.6875 5.277344 C 5.667969 5.230469 5.625 5.167969 5.597656 5.136719 C 5.570312 5.105469 5.488281 5.007812 5.417969 4.921875 C 4.996094 4.40625 4.546875 4.117188 4.019531 4.015625 C 3.890625 3.992188 3.5625 3.980469 3.433594 4 Z M 3.433594 4 "/>
<path style=" stroke:none;fill-rule:nonzero;fill:rgb(0%,0%,0%);fill-opacity:1;" d="M 9.148438 3.992188 C 8.542969 4.066406 8.042969 4.367188 7.59375 4.925781 C 7.523438 5.011719 7.445312 5.109375 7.417969 5.140625 C 7.390625 5.171875 7.347656 5.230469 7.328125 5.277344 C 7.292969 5.347656 7.289062 5.371094 7.289062 5.476562 C 7.289062 5.585938 7.289062 5.597656 7.335938 5.6875 C 7.484375 5.980469 7.863281 6.058594 8.125 5.851562 C 8.152344 5.832031 8.238281 5.726562 8.3125 5.625 C 8.445312 5.433594 8.636719 5.210938 8.738281 5.117188 C 8.835938 5.035156 8.992188 4.925781 9.09375 4.875 C 9.359375 4.742188 9.613281 4.707031 9.992188 4.75 C 10.398438 4.792969 10.753906 4.898438 11.15625 5.097656 C 11.316406 5.175781 11.386719 5.203125 11.378906 5.1875 C 11.335938 5.113281 11.148438 4.890625 11.007812 4.753906 C 10.605469 4.355469 10.1875 4.117188 9.722656 4.023438 C 9.597656 3.996094 9.257812 3.980469 9.148438 3.992188 Z M 9.148438 3.992188 "/>
<path style=" stroke:none;fill-rule:nonzero;fill:rgb(0%,0%,0%);fill-opacity:1;" d="M 3.222656 5.980469 C 2.882812 6.019531 2.621094 6.109375 2.382812 6.261719 C 2.269531 6.335938 2.140625 6.445312 2.140625 6.46875 C 2.140625 6.488281 2.296875 6.621094 2.402344 6.683594 C 2.535156 6.769531 2.660156 6.824219 2.828125 6.875 C 3.03125 6.941406 3.160156 6.957031 3.414062 6.957031 C 3.730469 6.957031 3.960938 6.910156 4.226562 6.796875 C 4.351562 6.738281 4.554688 6.609375 4.632812 6.53125 L 4.695312 6.46875 L 4.632812 6.40625 C 4.554688 6.328125 4.351562 6.199219 4.226562 6.140625 C 4.097656 6.085938 3.914062 6.027344 3.777344 6.003906 C 3.667969 5.984375 3.3125 5.96875 3.222656 5.980469 Z M 3.222656 5.980469 "/>
<path style=" stroke:none;fill-rule:nonzero;fill:rgb(0%,0%,0%);fill-opacity:1;" d="M 9.40625 5.980469 C 9.066406 6.019531 8.808594 6.109375 8.570312 6.261719 C 8.457031 6.335938 8.324219 6.445312 8.324219 6.46875 C 8.324219 6.488281 8.484375 6.621094 8.585938 6.683594 C 8.71875 6.769531 8.84375 6.824219 9.011719 6.875 C 9.214844 6.941406 9.347656 6.957031 9.601562 6.957031 C 9.917969 6.957031 10.144531 6.910156 10.410156 6.796875 C 10.539062 6.738281 10.738281 6.609375 10.816406 6.53125 L 10.882812 6.46875 L 10.816406 6.40625 C 10.738281 6.328125 10.539062 6.199219 10.410156 6.140625 C 10.285156 6.085938 10.097656 6.027344 9.960938 6.003906 C 9.855469 5.984375 9.5 5.96875 9.40625 5.980469 Z M 9.40625 5.980469 "/>
<path style=" stroke:none;fill-rule:nonzero;fill:rgb(0%,0%,0%);fill-opacity:1;" d="M 1.644531 8.75 C 1.65625 8.773438 2.0625 9.382812 2.539062 10.109375 L 3.410156 11.425781 L 5.738281 11.433594 L 6.117188 11.066406 C 6.328125 10.867188 6.503906 10.703125 6.507812 10.703125 C 6.511719 10.703125 6.6875 10.867188 6.898438 11.066406 L 7.277344 11.433594 L 9.605469 11.425781 L 10.476562 10.109375 C 10.953125 9.382812 11.359375 8.773438 11.371094 8.75 L 11.394531 8.707031 L 11.351562 8.746094 C 11.328125 8.769531 10.867188 9.160156 10.324219 9.613281 L 9.34375 10.441406 L 7.796875 10.441406 L 7.023438 9.449219 L 5.992188 9.449219 L 5.5625 9.945312 L 5.136719 10.441406 L 3.671875 10.441406 L 2.6875 9.613281 C 2.148438 9.160156 1.6875 8.769531 1.664062 8.746094 L 1.621094 8.707031 Z M 1.644531 8.75 "/>
</g>
</svg>
