<?xml version="1.0" encoding="UTF-8"?>
<svg xmlns="http://www.w3.org/2000/svg" xmlns:xlink="http://www.w3.org/1999/xlink" width="16px" height="16px" viewBox="0 0 16 16" version="1.1">
<g id="surface1">
<path style=" stroke:none;fill-rule:nonzero;fill:currentColor;fill-opacity:1;" d="M 14 8.667969 C 14 11.980469 11.3125 14.667969 8 14.667969 C 4.6875 14.667969 2 11.980469 2 8.667969 L 2.019531 2.953125 C 3.785156 1.921875 5.839844 1.332031 8.035156 1.332031 C 10.199219 1.332031 12.238281 1.914062 14 2.921875 L 14 8.667969 M 8.667969 13.285156 C 10.925781 12.960938 12.667969 11 12.667969 8.667969 L 12.667969 3.726562 C 11.265625 3.046875 9.691406 2.667969 8.035156 2.667969 C 6.332031 2.667969 4.71875 3.066406 3.292969 3.773438 L 3.332031 8.667969 C 3.332031 11 5.085938 12.960938 7.332031 13.285156 L 7.332031 12 L 8.667969 12 L 8.667969 13.285156 M 7.332031 10.667969 L 5.332031 10.667969 L 4 8.667969 L 6 9.332031 L 6.667969 9.332031 L 7.332031 8.667969 L 8.667969 8.667969 L 9.332031 9.332031 L 10 9.332031 L 12 8.667969 L 10.667969 10.667969 L 8.667969 10.667969 L 8 10 L 7.332031 10.667969 M 4 6.019531 C 4.425781 5.601562 5 5.367188 5.667969 5.367188 C 6.300781 5.367188 6.894531 5.601562 7.332031 6.019531 C 6.894531 6.433594 6.300781 6.667969 5.667969 6.667969 C 5 6.667969 4.425781 6.433594 4 6.019531 M 8.667969 6.019531 C 9.09375 5.601562 9.667969 5.367188 10.332031 5.367188 C 10.964844 5.367188 11.558594 5.601562 12 6.019531 C 11.558594 6.433594 10.964844 6.667969 10.332031 6.667969 C 9.667969 6.667969 9.09375 6.433594 8.667969 6.019531 Z M 8.667969 6.019531 "/>
</g>
</svg>
