<?xml version="1.0" standalone="no"?>
<!DOCTYPE svg PUBLIC "-//W3C//DTD SVG 20010904//EN"
 "http://www.w3.org/TR/2001/REC-SVG-20010904/DTD/svg10.dtd">
<svg version="1.0" xmlns="http://www.w3.org/2000/svg"
 width="1280.000000pt" height="1280.000000pt" viewBox="0 0 1280.000000 1280.000000"
 preserveAspectRatio="xMidYMid meet">
<metadata>
Created by potrace 1.14, written by Peter Selinger 2001-2017
</metadata>
<g transform="translate(0.000000,1280.000000) scale(0.100000,-0.100000)"
fill="#000000" stroke="none">
<path d="M0 6400 l0 -6400 6400 0 6400 0 0 6400 0 6400 -6400 0 -6400 0 0
-6400z m5887 4090 c51 -22 96 -40 99 -40 4 0 22 -11 40 -25 18 -14 37 -25 43
-25 6 0 11 -4 11 -10 0 -5 6 -10 13 -10 11 0 28 -14 124 -101 18 -16 61 -43
97 -61 64 -31 65 -31 123 -18 32 7 65 19 73 25 8 7 23 15 33 18 9 4 17 11 17
17 0 5 5 10 11 10 6 0 16 6 23 13 7 6 25 21 41 32 15 11 39 29 54 40 47 36 90
65 97 65 3 0 17 9 31 20 14 11 32 20 40 20 8 0 27 8 41 18 85 58 305 77 391
34 25 -12 49 -22 53 -22 12 0 33 -17 92 -76 37 -37 59 -71 81 -125 29 -71 30
-80 29 -214 -1 -124 -4 -150 -29 -224 -15 -47 -37 -108 -50 -135 -12 -28 -31
-71 -41 -96 -10 -25 -21 -47 -24 -50 -4 -3 -28 -41 -55 -85 -27 -44 -57 -89
-67 -101 -10 -11 -18 -25 -18 -31 0 -5 -9 -18 -20 -28 -11 -10 -20 -22 -20
-26 0 -4 -10 -19 -22 -33 -31 -32 -88 -100 -96 -112 -4 -6 -15 -13 -25 -17 -9
-4 -16 -10 -15 -14 3 -8 -48 -63 -58 -63 -3 0 -18 -12 -33 -27 -49 -48 -100
-93 -107 -93 -15 0 -117 -114 -124 -140 -7 -23 -4 -32 18 -53 15 -14 40 -31
56 -37 19 -7 308 -12 885 -15 799 -5 932 -9 1166 -36 190 -22 439 -88 570
-152 28 -13 84 -41 126 -61 42 -20 82 -43 89 -51 7 -8 19 -15 27 -15 8 0 33
-14 56 -32 103 -78 116 -88 124 -88 5 0 25 -15 45 -32 20 -18 51 -44 69 -58
57 -44 207 -207 252 -274 16 -22 39 -52 53 -67 13 -14 24 -28 24 -32 0 -3 15
-28 32 -54 18 -26 40 -61 50 -78 30 -55 118 -236 118 -244 0 -5 13 -40 29 -78
16 -39 36 -104 46 -144 9 -40 20 -78 25 -84 5 -6 21 -91 35 -188 l25 -178 0
-1227 c0 -1259 -1 -1301 -39 -1532 -11 -63 -43 -192 -68 -265 -19 -60 -113
-278 -122 -285 -3 -3 -18 -30 -34 -60 -37 -75 -65 -121 -88 -146 -10 -11 -19
-25 -19 -31 0 -6 -7 -13 -15 -17 -8 -3 -15 -12 -15 -19 0 -8 -7 -21 -17 -28
-9 -8 -24 -27 -33 -42 -30 -49 -279 -297 -299 -297 -3 0 -12 -9 -18 -19 -7
-11 -23 -26 -37 -33 -13 -7 -54 -34 -91 -60 -36 -27 -70 -48 -75 -48 -6 0 -10
-4 -10 -8 0 -5 -21 -19 -47 -32 -27 -12 -57 -27 -68 -33 -73 -39 -179 -86
-227 -102 -32 -11 -58 -22 -58 -26 0 -4 -21 -11 -47 -14 -27 -4 -59 -11 -73
-16 -14 -5 -34 -11 -45 -13 -11 -2 -60 -14 -110 -25 -165 -40 -349 -43 -2560
-43 -2136 0 -2452 5 -2590 37 -161 37 -241 58 -250 65 -5 4 -26 11 -45 15 -44
9 -180 63 -199 79 -8 6 -16 10 -17 9 -7 -4 -77 29 -118 55 -67 43 -79 51 -111
66 -17 8 -43 26 -58 40 -15 14 -31 26 -35 26 -4 0 -21 14 -39 30 -18 17 -36
30 -41 30 -16 0 -322 308 -322 324 0 4 -13 20 -29 36 -15 16 -36 45 -45 64 -9
20 -21 36 -26 36 -5 0 -11 8 -15 19 -3 10 -14 29 -25 41 -11 13 -20 31 -20 41
0 10 -8 24 -17 31 -10 7 -23 24 -29 38 -6 14 -26 55 -43 92 -17 37 -31 72 -31
78 0 6 -9 29 -20 50 -11 22 -18 40 -15 40 3 0 -3 17 -14 37 -10 21 -26 74 -36
118 -9 44 -20 89 -25 100 -5 11 -12 49 -16 85 -3 36 -10 70 -16 77 -43 53 -43
2659 1 2823 5 19 12 63 15 96 3 34 15 90 26 125 11 35 20 72 20 82 0 10 9 38
20 63 11 24 23 59 27 76 4 18 12 39 20 46 7 7 13 24 13 36 0 13 9 33 19 45 11
13 23 35 26 51 3 16 13 34 21 41 8 6 14 19 14 29 0 9 9 27 20 40 11 13 20 28
20 35 0 7 9 20 20 30 11 10 20 23 20 29 0 6 14 29 30 50 17 22 30 43 30 47 0
5 10 19 23 32 46 51 77 88 77 94 0 3 10 15 23 27 12 12 45 47 73 76 99 108
173 170 304 256 30 20 57 40 60 44 3 4 37 24 75 44 39 20 77 41 85 46 34 22
182 84 275 117 147 51 233 69 460 98 165 21 286 24 1176 30 504 3 786 8 804
15 55 21 84 49 83 80 -1 24 -16 46 -67 97 -36 37 -65 71 -63 76 1 5 -6 6 -16
3 -22 -7 -177 138 -166 156 4 6 3 8 -3 5 -11 -7 -103 76 -103 92 0 6 -9 15
-21 22 -14 7 -19 17 -16 31 4 15 2 18 -10 14 -11 -5 -13 -2 -9 9 3 9 2 14 -3
11 -16 -11 -151 185 -151 219 0 7 -7 18 -16 25 -13 11 -79 142 -103 205 -15
39 -30 90 -37 130 -3 22 -12 46 -18 54 -7 9 -11 64 -11 150 0 121 3 141 23
179 12 23 22 49 22 56 0 8 4 16 8 18 4 2 28 29 52 61 25 31 48 57 53 57 4 0
25 12 47 26 71 47 106 55 219 49 93 -5 115 -10 198 -45z"/>
<path d="M5753 10045 c-18 -8 -37 -23 -43 -34 -12 -24 -13 -91 -1 -91 5 0 12
-16 15 -35 7 -37 82 -188 121 -245 79 -113 116 -160 176 -219 74 -73 150 -141
159 -141 3 0 22 -12 43 -26 79 -53 201 -69 287 -37 49 18 143 74 175 105 103
96 167 162 202 208 23 30 50 64 60 75 10 11 24 32 30 48 7 15 17 27 23 27 5 0
10 6 10 13 0 6 20 55 45 107 35 73 45 106 45 145 0 52 -21 96 -50 105 -29 8
-84 3 -88 -9 -2 -7 -14 -17 -26 -22 -39 -18 -62 -34 -101 -69 -55 -51 -66 -62
-106 -105 -46 -52 -154 -145 -168 -145 -6 0 -20 -10 -31 -22 -19 -21 -30 -23
-120 -23 -66 0 -103 4 -112 13 -6 6 -20 12 -30 12 -10 0 -21 7 -24 15 -4 8 -9
15 -13 15 -4 0 -68 60 -142 133 -127 126 -224 199 -279 211 -14 2 -39 -2 -57
-9z"/>
<path d="M4125 8271 c-110 -10 -217 -23 -237 -29 -20 -5 -39 -7 -42 -4 -3 3
-6 0 -6 -6 0 -7 -10 -12 -22 -12 -13 0 -43 -7 -68 -16 -25 -9 -54 -18 -65 -20
-11 -2 -31 -9 -45 -15 -14 -6 -34 -15 -45 -20 -53 -21 -217 -102 -228 -113 -6
-6 -33 -25 -58 -41 -163 -105 -282 -213 -386 -353 -60 -80 -71 -96 -98 -149
-9 -18 -23 -37 -31 -44 -8 -6 -14 -18 -14 -26 0 -8 -9 -26 -20 -40 -11 -14
-20 -33 -20 -42 0 -10 -5 -22 -10 -27 -25 -25 -92 -236 -110 -349 -5 -33 -12
-71 -15 -85 -15 -72 -22 -161 -24 -310 -1 -90 -5 -168 -8 -173 -10 -17 -5
-1622 6 -1892 6 -143 19 -319 30 -391 19 -132 47 -251 62 -269 5 -5 9 -16 9
-25 0 -8 11 -36 24 -63 14 -26 27 -61 31 -77 4 -16 10 -32 15 -35 4 -3 22 -33
38 -68 17 -35 38 -70 47 -77 8 -7 15 -18 15 -24 0 -7 8 -21 18 -32 10 -10 23
-27 28 -37 23 -40 166 -193 285 -303 38 -35 87 -68 181 -121 11 -6 23 -15 27
-20 9 -13 188 -103 205 -103 8 0 32 -9 53 -20 63 -32 229 -71 388 -90 153 -18
698 -23 2480 -22 1143 0 1947 4 2085 11 227 10 423 37 487 67 17 7 37 14 45
14 8 0 18 4 24 9 5 4 32 14 59 21 28 8 64 22 80 32 17 10 38 18 48 18 9 0 17
5 17 10 0 6 19 19 43 29 44 19 213 126 219 139 2 4 22 20 46 36 24 16 48 38
53 48 5 10 15 18 22 18 7 0 24 15 37 33 26 34 56 69 108 123 17 18 32 37 33
41 0 5 20 35 45 68 49 67 174 313 197 390 9 28 21 75 28 105 8 30 16 57 19 60
4 3 12 52 19 110 8 58 17 132 22 165 4 33 8 600 7 1260 0 1232 0 1215 -37
1415 -13 70 -61 243 -70 255 -5 5 -12 24 -16 42 -3 18 -17 47 -29 66 -12 18
-29 54 -36 80 -8 26 -17 47 -21 47 -4 0 -24 29 -44 65 -20 36 -40 65 -45 65
-6 0 -10 6 -10 14 0 7 -17 32 -39 55 -21 22 -36 42 -34 44 5 6 -96 107 -108
107 -5 0 -9 5 -9 11 0 12 -60 69 -72 69 -5 0 -8 7 -8 15 0 8 -5 15 -11 15 -10
0 -35 18 -97 70 -30 25 -137 90 -149 90 -6 0 -20 9 -33 20 -13 11 -31 20 -41
20 -10 0 -24 6 -31 13 -7 7 -51 27 -98 44 -326 121 -387 127 -1415 127 -423 1
-932 -1 -1130 -3 -198 -3 -808 -2 -1355 1 -907 6 -1013 5 -1195 -11z m589
-1571 c52 -6 118 -20 147 -31 30 -12 64 -23 77 -26 12 -3 22 -9 22 -14 0 -5 7
-9 15 -9 21 0 90 -37 110 -60 10 -11 26 -20 37 -20 24 0 216 -192 224 -225 3
-14 10 -25 15 -25 8 0 30 -44 30 -60 0 -3 7 -12 15 -21 16 -18 44 -87 76 -189
17 -53 21 -93 21 -220 1 -94 -4 -177 -12 -210 -14 -59 -79 -238 -93 -255 -15
-18 -58 -86 -58 -91 0 -3 -18 -23 -40 -45 -22 -22 -40 -44 -40 -49 0 -6 -6
-10 -13 -10 -7 0 -26 -18 -43 -40 -16 -22 -33 -40 -37 -40 -5 0 -27 -15 -50
-33 -23 -19 -73 -48 -112 -66 -38 -18 -78 -37 -87 -42 -10 -5 -39 -14 -65 -20
-26 -6 -57 -13 -68 -16 -72 -18 -111 -22 -202 -23 -62 0 -103 4 -103 10 0 6
-18 10 -40 10 -74 0 -260 58 -260 81 0 6 -6 9 -14 6 -7 -3 -30 5 -49 19 -20
13 -41 24 -47 24 -11 0 -205 191 -233 230 -21 30 -30 45 -82 141 -37 69 -81
206 -70 217 3 3 0 11 -6 19 -17 20 -23 218 -9 288 7 33 16 82 21 108 4 27 12
54 18 60 5 7 14 31 20 53 12 44 83 175 113 208 10 11 18 24 18 29 0 11 103
109 170 162 118 91 299 165 430 175 135 11 155 11 254 0z m3652 1 c126 -15
339 -107 420 -182 11 -10 25 -19 30 -19 12 0 123 -119 167 -180 40 -55 99
-174 125 -255 41 -122 54 -324 31 -451 -36 -198 -160 -405 -319 -534 -23 -19
-50 -42 -59 -51 -31 -31 -215 -118 -276 -131 -22 -4 -62 -13 -90 -19 -27 -6
-97 -13 -155 -16 -87 -4 -122 -2 -205 17 -87 20 -245 82 -279 111 -6 5 -38 27
-71 48 -55 35 -129 100 -165 147 -51 64 -71 94 -71 101 1 4 -7 17 -16 28 -38
43 -86 160 -114 278 -35 142 -18 394 32 489 5 10 9 25 9 33 0 22 57 132 80
155 11 11 20 26 20 33 0 7 18 30 39 52 22 21 39 41 38 45 -3 9 51 60 63 60 5
0 21 16 36 35 14 19 33 35 41 35 7 0 16 7 19 15 4 8 15 15 25 15 10 0 19 4 19
9 0 11 167 88 232 108 102 30 260 39 394 24z m-3054 -2543 c16 16 37 15 72 -3
15 -8 32 -15 37 -15 5 0 37 -30 72 -66 125 -133 231 -236 266 -259 20 -13 47
-34 61 -47 23 -21 84 -55 103 -56 4 0 19 -7 32 -16 34 -22 203 -76 239 -76 18
0 37 -5 42 -10 14 -14 309 -7 379 8 56 12 162 46 215 69 104 45 220 110 220
124 0 5 6 9 14 9 7 0 29 17 48 38 19 21 51 51 71 66 21 16 37 32 37 36 0 5 12
22 28 38 88 97 115 122 123 117 5 -4 9 1 9 9 0 9 6 13 14 10 7 -3 21 2 30 12
20 19 126 32 126 15 0 -6 -13 -9 -32 -6 -33 5 -33 5 -5 -4 16 -6 36 -7 44 -4
9 4 14 2 11 -3 -3 -5 1 -15 9 -23 13 -12 14 -11 8 8 -10 32 2 25 21 -11 9 -18
21 -36 27 -40 28 -18 24 -135 -6 -210 -13 -32 -27 -55 -30 -51 -4 3 -7 -1 -7
-10 0 -9 -10 -28 -22 -42 -13 -14 -43 -51 -67 -83 -37 -48 -145 -147 -228
-210 -13 -9 -33 -25 -45 -36 -13 -10 -32 -22 -43 -27 -11 -5 -27 -13 -35 -18
-39 -25 -171 -85 -222 -101 -32 -11 -65 -23 -75 -28 -10 -6 -31 -11 -48 -13
-16 -2 -35 -7 -41 -11 -15 -11 -115 -26 -254 -40 -104 -10 -224 -4 -335 16
-11 2 -36 6 -55 10 -19 3 -38 5 -41 3 -3 -1 -12 3 -20 9 -8 7 -34 15 -59 19
-52 9 -178 52 -200 70 -8 6 -44 24 -80 40 -36 15 -67 31 -70 34 -8 10 -89 61
-96 61 -4 0 -14 7 -23 15 -9 8 -43 37 -76 63 -107 87 -206 203 -255 298 -28
54 -34 78 -34 130 -1 34 -4 66 -8 70 -14 14 -9 36 7 30 10 -3 15 1 15 11 0 18
46 63 64 63 6 0 4 5 -4 10 -11 8 -7 9 14 4 23 -6 27 -4 21 7 -8 12 -6 12 9 0
13 -11 20 -11 28 -3z"/>
<path d="M4485 6294 c-59 -14 -165 -56 -165 -66 0 -5 -6 -8 -12 -8 -41 -1
-188 -183 -203 -250 -4 -19 -10 -39 -13 -45 -18 -29 -29 -219 -14 -238 5 -7
13 -29 16 -50 8 -44 61 -148 82 -160 8 -4 14 -14 14 -20 0 -13 56 -67 70 -67
4 0 10 -7 13 -15 6 -15 100 -62 172 -86 75 -25 333 -10 355 21 3 4 25 20 50
35 115 72 183 156 227 283 31 88 32 236 3 301 -11 24 -20 51 -20 60 0 9 -22
47 -50 83 -27 37 -50 71 -50 77 0 6 -5 11 -11 11 -6 0 -28 14 -48 30 -58 49
-59 50 -74 50 -7 0 -17 4 -22 9 -29 26 -125 48 -210 49 -49 0 -99 -2 -110 -4z"/>
<path d="M8115 6293 c-63 -17 -138 -45 -153 -58 -9 -8 -38 -33 -63 -55 -25
-22 -51 -40 -58 -40 -6 0 -11 -9 -11 -21 0 -11 -8 -23 -17 -26 -19 -5 -62 -95
-84 -173 -20 -75 -23 -216 -5 -255 9 -18 16 -40 16 -48 0 -48 135 -237 169
-237 6 0 11 -3 11 -8 0 -8 10 -14 105 -62 66 -32 76 -34 183 -36 116 -3 173
10 276 63 31 16 36 19 94 73 18 16 37 30 42 30 6 0 10 7 10 15 0 8 4 15 9 15
5 0 13 10 17 22 4 13 18 39 31 59 13 20 26 48 29 62 2 15 9 38 14 52 18 47 12
198 -11 272 -11 38 -25 75 -30 83 -5 8 -17 31 -28 50 -36 65 -138 148 -231
186 -75 32 -97 36 -190 39 -58 2 -114 1 -125 -2z"/>
</g>
</svg>
