<?xml version="1.0" standalone="no"?>
<!DOCTYPE svg PUBLIC "-//W3C//DTD SVG 20010904//EN"
 "http://www.w3.org/TR/2001/REC-SVG-20010904/DTD/svg10.dtd">
<svg version="1.0" xmlns="http://www.w3.org/2000/svg"
 width="512.000000pt" height="512.000000pt" viewBox="0 0 512.000000 512.000000"
 preserveAspectRatio="xMidYMid meet">
<metadata>
Created by potrace 1.14, written by Peter Selinger 2001-2017
</metadata>
<g transform="translate(0.000000,512.000000) scale(0.100000,-0.100000)"
fill="#000000" stroke="none">
<path d="M2465 4856 c-125 -59 -177 -192 -121 -311 23 -51 78 -108 115 -120
20 -6 21 -13 21 -176 l0 -169 -268 0 c-235 0 -278 -2 -346 -20 -105 -27 -177
-69 -261 -154 -126 -128 -165 -238 -165 -466 0 -227 42 -343 169 -471 130
-129 243 -169 483 -169 l148 0 0 -160 0 -160 -382 0 c-380 0 -383 0 -433 -24
-51 -23 -108 -78 -120 -115 -6 -20 -13 -21 -200 -21 -107 0 -218 -5 -247 -11
-353 -74 -496 -497 -265 -782 l47 -57 0 -413 0 -413 -41 -39 c-52 -52 -85
-109 -104 -181 -22 -86 -20 -130 10 -159 52 -53 135 -15 135 62 0 21 11 61 24
88 90 191 342 191 432 0 13 -27 24 -67 24 -88 0 -77 83 -115 135 -62 59 58 6
242 -99 344 l-36 35 0 358 0 358 80 0 80 0 0 -302 c0 -298 1 -304 24 -353 28
-60 66 -97 126 -124 44 -20 60 -21 1130 -21 1070 0 1086 1 1130 21 60 27 98
64 126 124 23 49 24 55 24 353 l0 302 80 0 80 0 0 -358 0 -358 -41 -39 c-52
-52 -85 -109 -104 -181 -22 -86 -20 -130 10 -159 52 -53 135 -15 135 62 0 47
38 129 76 165 122 114 308 76 380 -77 13 -27 24 -67 24 -88 0 -77 83 -115 135
-62 59 58 6 242 -99 344 l-36 35 0 413 0 413 47 57 c231 284 87 709 -265 782
-29 6 -140 11 -247 11 -187 0 -194 1 -200 21 -12 37 -69 92 -120 115 -50 24
-53 24 -432 24 l-383 0 0 160 0 160 148 0 c240 0 353 40 483 169 127 128 169
244 169 471 0 230 -42 344 -174 475 -84 82 -146 118 -252 145 -67 18 -111 20
-346 20 l-268 0 0 169 c0 163 1 170 21 176 37 12 92 69 115 120 31 65 31 126
0 190 -59 125 -193 177 -311 121z m-333 -1266 c109 -31 142 -191 54 -268 -91
-80 -241 -30 -261 86 -21 126 82 216 207 182z m960 0 c109 -31 142 -191 54
-268 -91 -80 -241 -30 -261 86 -21 126 82 216 207 182z"/>
</g>
</svg>
